PathFileType	4	(X/Y/Z)	6_coords_data.trc
DataRate	CameraRate	NumFrames	NumMarkers	Units	OrigDataRate	OrigDataStartFrame	OrigNumFrames
30.0	30.0	5	21	m	30.0	45	55
Frame#	Time	THUMB_TIP	THUMB_IP	THUMB_MCP	THUMB_CMC	INDEX_TIP	INDEX_DIP	INDEX_PIP	INDEX_MCP	MIDDLE_TIP	MIDDLE_DIP	MIDDLE_PIP	MIDDLE_MCP	RING_TIP	RING_DIP	RING_PIP	RING_MCP	PINKY_TIP	PINKY_DIP	PINKY_PIP	PINKY_MCP	WRIST
X1	Y1	Z1	X2	Y2	Z2	X3	Y3	Z3	X4	Y4	Z4	X5	Y5	Z5	X6	Y6	Z6	X7	Y7	Z7	X8	Y8	Z8	X9	Y9	Z9	X10	Y10	Z10	X11	Y11	Z11	X12	Y12	Z12	X13	Y13	Z13	X14	Y14	Z14	X15	Y15	Z15	X16	Y16	Z16	X17	Y17	Z17	X18	Y18	Z18	X19	Y19	Z19	X20	Y20	Z20	X21	Y21	Z21
43	1.4666666666666603	0.5329401194762564	-0.030534777993308504	-0.1517256667758658	0.5217101848046578	-0.03136551133055643	-0.13169572794934892	0.49585484755737586	-0.035244286126675295	-0.1148055934942799	0.47970166989522633	-0.03036354985352685	-0.07351221309442646	0.5783260936885571	0.013181783801293423	-0.15631084103029663	0.5610832232583314	0.01433044479301715	-0.15089198531598447	0.53759824378458	0.013985049539775973	-0.1419283769891712	0.501205216087245	0.005500001245273167	-0.12150320662364009	0.5948660309835008	0.014587344606223795	-0.13542840018816743	0.5779224187700731	0.01894204560681023	-0.13074325511501544	0.550497889304355	0.02335300507462479	-0.12192009410791296	0.5102494502877424	0.018626196166806275	-0.10310870513008907	0.6001356140522803	0.01835228394757149	-0.11034853855330742	0.5832941342328729	0.021386179130609806	-0.10467755649454302	0.5596669553360983	0.02373574381676047	-0.09716650183055553	0.5216295066616403	0.020246698910672323	-0.08391131801510893	0.5966218918390078	0.0052481937838823045	-0.08213098418167841	0.581128892446848	0.00969481262884997	-0.07636951295619154	0.5613657352257418	0.01356043527092532	-0.07042926066837446	0.5261486587568923	0.012525373678839546	-0.0627111246571474	0.4622830810018609	-0.023011742144276925	-0.051989820119430985
44	1.4999999999999936	0.5360771244923367	-0.03171486722540595	-0.14922136835279948	0.5237579620063411	-0.03208589888339075	-0.1298280558159373	0.4972198082729704	-0.035888053808237674	-0.11401382126754872	0.4801006643929795	-0.030314214810115758	-0.07320013199986325	0.5785012380057416	0.013361682954597942	-0.15530614342990973	0.5611873004794398	0.014696657767823917	-0.15016363338292196	0.537582079309373	0.014502670860712885	-0.14151691518512605	0.5010230664475083	0.005964625200274187	-0.1214127750924417	0.5946611210168563	0.014948882672052188	-0.13471696567514857	0.5776957631281775	0.019385065581263183	-0.1301896140315201	0.5502215639034299	0.023897687861130668	-0.12157484954732617	0.5098579548270614	0.01919890487687348	-0.10300475472266349	0.5997150018855444	0.018920854407692422	-0.11010983511203878	0.5828639875115221	0.021996153971111876	-0.10448970636247001	0.5592277594626418	0.024413995130657007	-0.09702895929876812	0.5211843859771488	0.02094145504318412	-0.08378645073036645	0.596119699155653	0.00659797336867729	-0.08291746455737753	0.5806609087344472	0.010918330290974887	-0.0769710105907524	0.5609203876036156	0.014573970091888544	-0.07082608242769234	0.5258234712571415	0.013124201470595898	-0.0626414575179417	0.4622830810018608	-0.023011742144276925	-0.051989820119430985
45	1.5333333333333266	0.5385212389790603	-0.03233439225051071	-0.14710186672995199	0.5253305096220614	-0.03243338293184406	-0.12828711560549066	0.49826796474031565	-0.036258077385956766	-0.11339381587520347	0.48041487079580214	-0.030232170236398237	-0.07296059340118749	0.5786525836158155	0.013644643094672726	-0.1543770296078569	0.561279170017793	0.01513704795090387	-0.14948446098829266	0.537574008393985	0.01506172436287756	-0.1411137100216095	0.5008807285273534	0.006436572970233478	-0.12129336516883188	0.5944869423648795	0.015413755138107055	-0.13399925993503015	0.5774971070649899	0.0199022543345716	-0.12961760825490296	0.5499716376478607	0.02446889268869723	-0.12119716304640502	0.5095022811486525	0.019770981932104692	-0.10285844062462507	0.5993124793588849	0.019620511032834353	-0.10982359233129146	0.5824476598794669	0.022714888827748636	-0.10425558640555921	0.5587973044288688	0.025137043470335074	-0.0968411523106491	0.5207486409689122	0.02163704325872895	-0.08362109022948916	0.5956409669316148	0.00803148123951214	-0.0835652697295054	0.5802001713202684	0.012186803691367598	-0.07745665890463482	0.5604742493303942	0.015611183772800352	-0.0711341877337009	0.5254985261523584	0.013721509331782178	-0.06253120164279213	0.4622830810018609	-0.023011742144276925	-0.051989820119430985
47	1.5666666666666675	0.5401398805754962	-0.0320834320516824	-0.14563392430322308	0.5263757415919128	-0.032170808127366834	-0.1272344448686849	0.4989938458283648	-0.03625655075465917	-0.11300916836600416	0.4806049556145402	-0.03011882983793923	-0.07283371443387837	0.5787660541353645	0.01408030088539447	-0.15361708299508514	0.5613482125408896	0.015640538521352054	-0.14890704555265197	0.5375659607892522	0.015591387464390372	-0.14075769473216712	0.5007716633488127	0.006848237907883803	-0.12117777885652978	0.5943535554870614	0.015973406255640477	-0.13334547572079494	0.5773343441876313	0.020471100719664737	-0.12908904631886237	0.5497547916152319	0.025023652712203415	-0.12083967663012296	0.509195893269443	0.020278818151398093	-0.10271206699822286	0.5989836098566689	0.02037411876892814	-0.10952251039060651	0.5820956088416744	0.02343466602580213	-0.10400630950539685	0.558423221464466	0.025789458102350782	-0.0966406453031941	0.5203653385428454	0.022248274170532323	-0.08345814182755457	0.5952094465990126	0.009436938095731096	-0.08416680336225141	0.5797762387966074	0.01338813880008971	-0.077905484817276	0.5600581778603076	0.016547091305398	-0.07142234429885641	0.5252088191319736	0.014248134873309781	-0.06241565530970716	0.4622830810018609	-0.023011742144276925	-0.051989820119430985
48	1.6000000000000008	0.5413553914914201	-0.031530320919370136	-0.14449069181715118	0.5271516135617752	-0.031700079353069954	-0.1264290231622478	0.4995452412468733	-0.036102814830336616	-0.1127423826713077	0.480744810451054	-0.029988056539851926	-0.07275434029686084	0.5788635013448952	0.014597217416409736	-0.15292384872278225	0.5614074112582683	0.016192658062521792	-0.14836978591773642	0.5375596307891828	0.016136166114064876	-0.1404142841511563	0.5006848745301982	0.007249345310351263	-0.12105161747419374	0.5942434463453808	0.016604334609570115	-0.13271074577461345	0.5771926830668516	0.02108665136317356	-0.12856583224838367	0.5495593528863563	0.025591410903553657	-0.12047165195516787	0.5089186347610225	0.020765354097151967	-0.10254990184647167	0.5986988743320314	0.021204891340874776	-0.10917353579206984	0.5817823964309872	0.024204118120112916	-0.10371117237041941	0.5580827719547788	0.026453875287650974	-0.09640046984782838	0.5200133133334875	0.022820980487320286	-0.08327647542343453	0.5948309916836847	0.010826371511722832	-0.0845648436300912	0.5793915209667468	0.014566313789664553	-0.07819023966290395	0.5596709598350971	0.017456623905070523	-0.07159042185559689	0.5249317436041067	0.014750287343149537	-0.06227666594994269	0.462283081001861	-0.023011742144276925	-0.051989820119430985
